<svg width="14" height="23" viewBox="0 0 14 23" fill="none" xmlns="http://www.w3.org/2000/svg">
<path d="M3.06245 0.438805L13.0624 10.4388C13.2023 10.5782 13.3132 10.7437 13.3889 10.9261C13.4647 11.1084 13.5036 11.3039 13.5036 11.5013C13.5036 11.6987 13.4647 11.8942 13.3889 12.0765C13.3132 12.2589 13.2023 12.4244 13.0624 12.5638L3.06245 22.5638C2.78065 22.8456 2.39846 23.0039 1.99995 23.0039C1.60143 23.0039 1.21924 22.8456 0.937446 22.5638C0.655653 22.282 0.497344 21.8998 0.497344 21.5013C0.497344 21.1028 0.655653 20.7206 0.937446 20.4388L9.8762 11.5001L0.936196 2.56131C0.654404 2.27951 0.496094 1.89732 0.496094 1.49881C0.496094 1.10029 0.654404 0.718098 0.936196 0.436306C1.21799 0.154514 1.60018 -0.00379944 1.9987 -0.00379944C2.39721 -0.00379944 2.7794 0.154514 3.0612 0.436306L3.06245 0.438805Z" fill="white"/>
</svg>
