<svg width="349" height="462" viewBox="0 0 349 462" fill="none" xmlns="http://www.w3.org/2000/svg">
<g opacity="0.53">
<path d="M118 449.167C75.4741 449.167 41 414.693 41 372.167C41 329.641 75.4741 295.167 118 295.167C160.526 295.167 195 329.641 195 372.167C195 414.693 160.526 449.167 118 449.167Z" fill="#50A5E6"/>
<path d="M-23.1668 320.833C-72.7804 320.833 -113 280.614 -113 231C-113 181.386 -72.7804 141.167 -23.1668 141.167C26.4468 141.167 66.6665 181.386 66.6665 231C66.6665 280.614 26.4468 320.833 -23.1668 320.833Z" fill="#50A5E6"/>
<path d="M214.25 282.333C139.83 282.333 79.5 222.004 79.5 147.583C79.5 73.1629 139.83 12.8333 214.25 12.8333C288.67 12.8333 349 73.1629 349 147.583C349 222.004 288.67 282.333 214.25 282.333Z" fill="#50A5E6"/>
<path d="M214.25 269.5C146.917 269.5 92.3332 214.916 92.3332 147.583C92.3332 80.2506 146.917 25.6667 214.25 25.6667C281.583 25.6667 336.167 80.2506 336.167 147.583C336.167 214.916 281.583 269.5 214.25 269.5Z" fill="#A8E0F9" fill-opacity="0.5"/>
<path d="M118 436.333C82.5616 436.333 53.8332 407.605 53.8332 372.167C53.8332 336.728 82.5616 308 118 308C153.438 308 182.167 336.728 182.167 372.167C182.167 407.605 153.438 436.333 118 436.333Z" fill="#A8E0F9" fill-opacity="0.5"/>
<path d="M-23.167 308C-65.6929 308 -100.167 273.526 -100.167 231C-100.167 188.474 -65.6929 154 -23.167 154C19.3589 154 53.833 188.474 53.833 231C53.833 273.526 19.3589 308 -23.167 308Z" fill="#A8E0F9" fill-opacity="0.5"/>
<path d="M214.25 250.25C217.654 250.25 220.918 248.898 223.325 246.491C225.731 244.084 227.083 240.82 227.083 237.417C227.083 234.013 225.731 230.749 223.325 228.342C220.918 225.935 217.654 224.583 214.25 224.583C171.785 224.583 137.25 190.049 137.25 147.583C137.25 144.18 135.898 140.916 133.491 138.509C131.085 136.102 127.82 134.75 124.417 134.75C121.013 134.75 117.749 136.102 115.342 138.509C112.936 140.916 111.583 144.18 111.583 147.583C111.583 204.191 157.642 250.25 214.25 250.25ZM-87.3332 237.417C-87.3332 234.013 -85.9811 230.749 -83.5744 228.342C-81.1677 225.935 -77.9035 224.583 -74.4998 224.583C-71.0963 224.583 -67.832 225.935 -65.4253 228.342C-63.0186 230.749 -61.6665 234.013 -61.6665 237.417C-61.6665 255.101 -47.2675 269.5 -29.5832 269.5C-26.1796 269.5 -22.9154 270.852 -20.5086 273.259C-18.1019 275.665 -16.7498 278.93 -16.7498 282.333C-16.7498 285.737 -18.1019 289.001 -20.5086 291.408C-22.9154 293.815 -26.1796 295.167 -29.5832 295.167C-61.4227 295.167 -87.3332 269.256 -87.3332 237.417ZM66.6668 378.583C66.6668 375.18 68.0189 371.915 70.4256 369.509C72.8323 367.102 76.0965 365.75 79.5002 365.75C82.9038 365.75 86.168 367.102 88.5747 369.509C90.9814 371.915 92.3335 375.18 92.3335 378.583C92.3335 389.196 100.97 397.833 111.583 397.833C114.987 397.833 118.251 399.185 120.658 401.592C123.065 403.999 124.417 407.263 124.417 410.667C124.417 414.07 123.065 417.335 120.658 419.741C118.251 422.148 114.987 423.5 111.583 423.5C86.8152 423.5 66.6668 403.352 66.6668 378.583Z" fill="#F2F9FF"/>
<path d="M304.083 166.833C309.189 166.833 314.085 164.805 317.695 161.195C321.305 157.585 323.333 152.689 323.333 147.583C323.333 87.4335 274.4 38.5 214.25 38.5C209.145 38.5 204.248 40.5281 200.638 44.1382C197.028 47.7483 195 52.6446 195 57.75C195 62.8554 197.028 67.7517 200.638 71.3618C204.248 74.9719 209.145 77 214.25 77C232.964 77.0204 250.905 84.4634 264.138 97.6959C277.37 110.928 284.813 128.87 284.833 147.583C284.833 152.689 286.862 157.585 290.472 161.195C294.082 164.805 298.978 166.833 304.083 166.833ZM2.50018 231C2.50018 216.845 -9.01129 205.333 -23.1665 205.333C-28.2719 205.333 -33.1682 203.305 -36.7783 199.695C-40.3883 196.085 -42.4165 191.189 -42.4165 186.083C-42.4165 180.978 -40.3883 176.082 -36.7783 172.472C-33.1682 168.861 -28.2719 166.833 -23.1665 166.833C12.215 166.833 41.0002 195.618 41.0002 231C41.0002 236.105 38.9721 241.002 35.362 244.612C31.7519 248.222 26.8556 250.25 21.7502 250.25C16.6448 250.25 11.7485 248.222 8.1384 244.612C4.52832 241.002 2.50018 236.105 2.50018 231ZM130.834 372.167C130.834 365.095 125.071 359.333 118 359.333C112.895 359.333 107.998 357.305 104.388 353.695C100.778 350.085 98.7502 345.189 98.7502 340.083C98.7502 334.978 100.778 330.082 104.388 326.472C107.998 322.861 112.895 320.833 118 320.833C146.311 320.833 169.334 343.856 169.334 372.167C169.334 377.272 167.305 382.168 163.695 385.778C160.085 389.389 155.189 391.417 150.084 391.417C144.978 391.417 140.082 389.389 136.472 385.778C132.862 382.168 130.834 377.272 130.834 372.167Z" fill="white"/>
<path d="M214.25 12.8333C205.523 12.8333 197.002 13.7316 188.737 15.3358C184.431 24.6041 182.189 34.697 182.166 44.9166C182.187 61.8722 188.311 78.2537 199.418 91.0651C210.525 103.877 225.872 112.262 242.653 114.687C259.435 117.112 276.528 113.416 290.808 104.274C305.088 95.1312 315.599 81.154 320.42 64.8982C295.741 33.2768 257.37 12.8333 214.25 12.8333ZM52.8192 183.298C50.3344 197.528 42.6003 210.307 31.1465 219.109C19.6926 227.91 5.35294 232.093 -9.03668 230.83C-23.4263 229.567 -36.8181 222.95 -46.5636 212.288C-56.3092 201.626 -61.6989 187.695 -61.6669 173.25C-61.6096 164.16 -59.3833 155.216 -55.1733 147.16C-44.9586 143.229 -34.1117 141.198 -23.1669 141.167C-7.97174 141.19 6.96936 145.067 20.2585 152.435C33.5477 159.804 44.7506 170.422 52.8192 183.298ZM181.384 328.546C179.569 340.662 173.471 351.725 164.196 359.729C154.921 367.732 143.084 372.145 130.833 372.167C117.219 372.167 104.162 366.758 94.5349 357.131C84.9081 347.505 79.4997 334.448 79.4997 320.833C79.4997 314.853 80.7189 309.193 82.6054 303.855C93.5311 298.149 105.674 295.169 118 295.167C130.479 295.178 142.768 298.222 153.81 304.037C164.851 309.851 174.314 318.263 181.384 328.546Z" fill="white" fill-opacity="0.5"/>
</g>
</svg>
