<svg width="671" height="892" viewBox="0 0 671 892" fill="none" xmlns="http://www.w3.org/2000/svg">
<g opacity="0.53">
<path d="M446 867.222C528.106 867.222 594.666 800.662 594.666 718.556C594.666 636.449 528.106 569.889 446 569.889C363.893 569.889 297.333 636.449 297.333 718.556C297.333 800.662 363.893 867.222 446 867.222Z" fill="#50A5E6"/>
<path d="M718.556 619.444C814.346 619.444 892 541.791 892 446C892 350.209 814.346 272.556 718.556 272.556C622.765 272.556 545.111 350.209 545.111 446C545.111 541.791 622.765 619.444 718.556 619.444Z" fill="#50A5E6"/>
<path d="M260.167 545.111C403.853 545.111 520.333 428.63 520.333 284.944C520.333 141.258 403.853 24.7778 260.167 24.7778C116.481 24.7778 0 141.258 0 284.944C0 428.63 116.481 545.111 260.167 545.111Z" fill="#50A5E6"/>
<path d="M260.166 520.333C390.168 520.333 495.555 414.946 495.555 284.944C495.555 154.943 390.168 49.5555 260.166 49.5555C130.165 49.5555 24.7773 154.943 24.7773 284.944C24.7773 414.946 130.165 520.333 260.166 520.333Z" fill="#A8E0F9" fill-opacity="0.5"/>
<path d="M445.999 842.444C514.421 842.444 569.888 786.977 569.888 718.556C569.888 650.134 514.421 594.667 445.999 594.667C377.577 594.667 322.11 650.134 322.11 718.556C322.11 786.977 377.577 842.444 445.999 842.444Z" fill="#A8E0F9" fill-opacity="0.5"/>
<path d="M718.555 594.667C800.662 594.667 867.222 528.106 867.222 446C867.222 363.894 800.662 297.333 718.555 297.333C636.449 297.333 569.889 363.894 569.889 446C569.889 528.106 636.449 594.667 718.555 594.667Z" fill="#A8E0F9" fill-opacity="0.5"/>
<path d="M260.166 483.167C253.595 483.167 247.293 480.556 242.646 475.909C237.999 471.263 235.389 464.96 235.389 458.389C235.389 451.817 237.999 445.515 242.646 440.868C247.293 436.222 253.595 433.611 260.166 433.611C342.156 433.611 408.833 366.934 408.833 284.944C408.833 278.373 411.444 272.071 416.09 267.424C420.737 262.777 427.039 260.167 433.611 260.167C440.182 260.167 446.485 262.777 451.131 267.424C455.778 272.071 458.389 278.373 458.389 284.944C458.389 394.239 369.461 483.167 260.166 483.167ZM842.444 458.389C842.444 451.817 839.834 445.515 835.187 440.868C830.54 436.222 824.238 433.611 817.667 433.611C811.095 433.611 804.793 436.222 800.146 440.868C795.499 445.515 792.889 451.817 792.889 458.389C792.889 492.533 765.088 520.333 730.944 520.333C724.373 520.333 718.07 522.944 713.424 527.591C708.777 532.237 706.167 538.54 706.167 545.111C706.167 551.683 708.777 557.985 713.424 562.632C718.07 567.278 724.373 569.889 730.944 569.889C792.418 569.889 842.444 519.863 842.444 458.389ZM545.111 730.944C545.111 724.373 542.5 718.071 537.854 713.424C533.207 708.777 526.905 706.167 520.333 706.167C513.762 706.167 507.459 708.777 502.813 713.424C498.166 718.071 495.555 724.373 495.555 730.944C495.555 751.436 478.88 768.111 458.389 768.111C451.817 768.111 445.515 770.722 440.868 775.368C436.221 780.015 433.611 786.317 433.611 792.889C433.611 799.46 436.221 805.763 440.868 810.409C445.515 815.056 451.817 817.667 458.389 817.667C506.21 817.667 545.111 778.766 545.111 730.944Z" fill="#F2F9FF"/>
<path d="M86.7223 322.111C76.8651 322.111 67.4116 318.195 60.4415 311.225C53.4714 304.255 49.5557 294.802 49.5557 284.944C49.5557 168.811 144.033 74.3333 260.167 74.3333C270.024 74.3333 279.477 78.2491 286.448 85.2192C293.418 92.1893 297.333 101.643 297.333 111.5C297.333 121.357 293.418 130.811 286.448 137.781C279.477 144.751 270.024 148.667 260.167 148.667C224.036 148.706 189.396 163.076 163.847 188.625C138.299 214.173 123.928 248.813 123.889 284.944C123.889 294.802 119.973 304.255 113.003 311.225C106.033 318.195 96.5795 322.111 86.7223 322.111ZM669 446C669 418.67 691.226 396.444 718.556 396.444C728.413 396.444 737.866 392.529 744.836 385.559C751.807 378.588 755.722 369.135 755.722 359.278C755.722 349.421 751.807 339.967 744.836 332.997C737.866 326.027 728.413 322.111 718.556 322.111C650.243 322.111 594.667 377.688 594.667 446C594.667 455.857 598.583 465.311 605.553 472.281C612.523 479.251 621.976 483.167 631.833 483.167C641.691 483.167 651.144 479.251 658.114 472.281C665.084 465.311 669 455.857 669 446ZM421.222 718.555C421.222 704.903 432.348 693.778 446 693.778C455.857 693.778 465.311 689.862 472.281 682.892C479.251 675.922 483.167 666.468 483.167 656.611C483.167 646.754 479.251 637.3 472.281 630.33C465.311 623.36 455.857 619.444 446 619.444C391.34 619.444 346.889 663.896 346.889 718.555C346.889 728.413 350.805 737.866 357.775 744.836C364.745 751.806 374.198 755.722 384.056 755.722C393.913 755.722 403.366 751.806 410.336 744.836C417.307 737.866 421.222 728.413 421.222 718.555Z" fill="white"/>
<path d="M260.166 24.7778C277.015 24.7778 293.468 26.5122 309.424 29.6094C317.738 47.5041 322.066 66.9907 322.111 86.7222C322.07 119.459 310.247 151.087 288.803 175.823C267.358 200.558 237.727 216.748 205.326 221.43C172.926 226.113 139.923 218.976 112.353 201.325C84.7825 183.673 64.4876 156.687 55.1797 125.301C102.827 64.2488 176.913 24.7778 260.166 24.7778ZM571.846 353.901C576.643 381.375 591.576 406.048 613.69 423.041C635.805 440.034 663.491 448.11 691.273 445.671C719.056 443.233 744.912 430.458 763.728 409.872C782.544 389.286 792.95 362.389 792.888 334.5C792.778 316.95 788.479 299.681 780.351 284.127C760.629 276.537 739.687 272.616 718.555 272.556C689.217 272.6 660.37 280.086 634.712 294.312C609.054 308.538 587.424 329.041 571.846 353.901ZM323.622 634.336C327.126 657.728 338.9 679.089 356.807 694.541C374.715 709.994 397.569 718.514 421.222 718.556C447.508 718.556 472.717 708.113 491.304 689.527C509.891 670.94 520.333 645.73 520.333 619.444C520.333 607.898 517.979 596.971 514.337 586.663C493.242 575.647 469.797 569.892 446 569.889C421.906 569.91 398.178 575.788 376.86 587.014C355.542 598.241 337.271 614.481 323.622 634.336Z" fill="white" fill-opacity="0.5"/>
</g>
</svg>
