<svg width="49" height="49" viewBox="0 0 49 49" fill="none" xmlns="http://www.w3.org/2000/svg">
<path d="M30.5 8.5C34.7435 8.5 38.8131 10.1857 41.8137 13.1863C44.8143 16.1869 46.5 20.2565 46.5 24.5C46.5 28.7435 44.8143 32.8131 41.8137 35.8137C38.8131 38.8143 34.7435 40.5 30.5 40.5C26.2565 40.5 22.1869 38.8143 19.1863 35.8137C16.1857 32.8131 14.5 28.7435 14.5 24.5C14.5 20.2565 16.1857 16.1869 19.1863 13.1863C22.1869 10.1857 26.2565 8.5 30.5 8.5ZM30.5 12.5C27.3174 12.5 24.2652 13.7643 22.0147 16.0147C19.7643 18.2652 18.5 21.3174 18.5 24.5C18.5 27.6826 19.7643 30.7348 22.0147 32.9853C24.2652 35.2357 27.3174 36.5 30.5 36.5C33.6826 36.5 36.7348 35.2357 38.9853 32.9853C41.2357 30.7348 42.5 27.6826 42.5 24.5C42.5 21.3174 41.2357 18.2652 38.9853 16.0147C36.7348 13.7643 33.6826 12.5 30.5 12.5ZM28.5 16.5H31.5V24.06L36.16 28.72L34.04 30.84L28.5 25.3V16.5ZM4.5 36.5C3.96957 36.5 3.46086 36.2893 3.08579 35.9142C2.71071 35.5391 2.5 35.0304 2.5 34.5C2.5 33.9696 2.71071 33.4609 3.08579 33.0858C3.46086 32.7107 3.96957 32.5 4.5 32.5H12.16C12.78 33.92 13.58 35.26 14.5 36.5H4.5ZM6.5 26.5C5.96957 26.5 5.46086 26.2893 5.08579 25.9142C4.71071 25.5391 4.5 25.0304 4.5 24.5C4.5 23.9696 4.71071 23.4609 5.08579 23.0858C5.46086 22.7107 5.96957 22.5 6.5 22.5H10.6L10.5 24.5L10.6 26.5H6.5ZM8.5 16.5C7.96957 16.5 7.46086 16.2893 7.08579 15.9142C6.71071 15.5391 6.5 15.0304 6.5 14.5C6.5 13.9696 6.71071 13.4609 7.08579 13.0858C7.46086 12.7107 7.96957 12.5 8.5 12.5H14.5C13.58 13.74 12.78 15.08 12.16 16.5H8.5Z" fill="white"/>
</svg>
