<svg width="29" height="29" viewBox="0 0 29 29" fill="none" xmlns="http://www.w3.org/2000/svg">
<path d="M14.5002 25.8334C17.506 25.8334 20.3886 24.6393 22.514 22.5139C24.6395 20.3885 25.8335 17.5058 25.8335 14.5C25.8335 11.4943 24.6395 8.61158 22.514 6.48616C20.3886 4.36075 17.506 3.16671 14.5002 3.16671C11.4944 3.16671 8.6117 4.36075 6.48629 6.48616C4.36087 8.61158 3.16683 11.4943 3.16683 14.5C3.16683 17.5058 4.36087 20.3885 6.48629 22.5139C8.6117 24.6393 11.4944 25.8334 14.5002 25.8334ZM14.5002 0.333374C16.3606 0.333374 18.2027 0.699806 19.9215 1.41175C21.6403 2.12369 23.202 3.1672 24.5175 4.48269C25.833 5.79819 26.8765 7.35991 27.5885 9.07869C28.3004 10.7975 28.6668 12.6396 28.6668 14.5C28.6668 18.2573 27.1743 21.8606 24.5175 24.5174C21.8607 27.1742 18.2574 28.6667 14.5002 28.6667C6.666 28.6667 0.333496 22.2917 0.333496 14.5C0.333496 10.7428 1.82605 7.13946 4.48282 4.48269C7.13958 1.82593 10.7429 0.333374 14.5002 0.333374ZM15.2085 7.41671V14.8542L21.5835 18.6367L20.521 20.3792L13.0835 15.9167V7.41671H15.2085Z" fill="white"/>
</svg>
