<svg width="49" height="49" viewBox="0 0 49 49" fill="none" xmlns="http://www.w3.org/2000/svg">
<path d="M16.5 38.5C17.5609 38.5 18.5783 38.0786 19.3284 37.3284C20.0786 36.5783 20.5 35.5609 20.5 34.5C20.5 33.4391 20.0786 32.4217 19.3284 31.6716C18.5783 30.9214 17.5609 30.5 16.5 30.5C15.4391 30.5 14.4217 30.9214 13.6716 31.6716C12.9214 32.4217 12.5 33.4391 12.5 34.5C12.5 35.5609 12.9214 36.5783 13.6716 37.3284C14.4217 38.0786 15.4391 38.5 16.5 38.5ZM36.5 38.5C37.5609 38.5 38.5783 38.0786 39.3284 37.3284C40.0786 36.5783 40.5 35.5609 40.5 34.5C40.5 33.4391 40.0786 32.4217 39.3284 31.6716C38.5783 30.9214 37.5609 30.5 36.5 30.5C35.4391 30.5 34.4217 30.9214 33.6716 31.6716C32.9214 32.4217 32.5 33.4391 32.5 34.5C32.5 35.5609 32.9214 36.5783 33.6716 37.3284C34.4217 38.0786 35.4391 38.5 36.5 38.5Z" stroke="white" stroke-width="2" stroke-miterlimit="1.5" stroke-linecap="round" stroke-linejoin="round"/>
<path d="M20.6 34.5H30.5V13.7C30.5 13.3817 30.3736 13.0765 30.1485 12.8515C29.9235 12.6264 29.6183 12.5 29.3 12.5H2.5M11.8 34.5H7.7C7.54241 34.5 7.38637 34.469 7.24078 34.4087C7.09519 34.3484 6.9629 34.26 6.85147 34.1485C6.74004 34.0371 6.65165 33.9048 6.59134 33.7592C6.53104 33.6136 6.5 33.4576 6.5 33.3V23.5" stroke="white" stroke-width="2" stroke-linecap="round"/>
<path d="M4.5 18.5H12.5" stroke="white" stroke-width="2" stroke-linecap="round" stroke-linejoin="round"/>
<path d="M30.5 18.5H41.72C41.952 18.5001 42.1789 18.5673 42.3734 18.6937C42.5679 18.8201 42.7217 19.0001 42.816 19.212L46.396 27.268C46.4642 27.421 46.4996 27.5865 46.5 27.754V33.3C46.5 33.4576 46.469 33.6136 46.4087 33.7592C46.3484 33.9048 46.26 34.0371 46.1485 34.1485C46.0371 34.26 45.9048 34.3484 45.7592 34.4087C45.6136 34.469 45.4576 34.5 45.3 34.5H41.5M30.5 34.5H32.5" stroke="white" stroke-width="2" stroke-linecap="round"/>
</svg>
